<svg version="1.1" xmlns="http://www.w3.org/2000/svg" viewBox="-2003.8660580843753 -3994.988454231213 9209.436008136076 7402.305739341098"><desc>Created with Snap</desc><defs></defs><g><g transform="matrix(21.6126,0,0,21.6126,-1722.0614,-4390.2001)">
<g id="gSkuw6lfkozt">
	<g>
		<path d="M162.71262,346.57227c-14.57422,0.00098-26.57324-0.58203-34.60059-1.12695
			c-43.97167-2.98145-97.11523-10.67871-117.94823-44.00879c-12.57422-20.11719-11.95312-47.54297,1.84473-81.51465
			c10.75293-26.47314,66.19141-80.56641,82.92578-96.51514c40.24706-38.35449,79.8789-70.68994,96.37695-78.63379l1.08496,2.25244
			l-1.08496-2.25244c24.00977-11.56006,50.65137-15.04297,77.04883-10.06885c24.47852,4.61182,48.42383,16.30225,69.24707,33.80713
			c23.28809,19.57715,41.71094,45.91064,51.87402,74.1499c11.04004,30.67285,12.3623,62.81934,3.82422,92.96387
			c-12.95508,45.74023-50.76758,78.02441-112.38672,95.95703C239.05637,343.76465,194.69406,346.57227,162.71262,346.57227z
			 M244.99973,37.46191c-17.61816,0-35.0625,3.89209-51.51855,11.81592C159.5759,65.60254,32.40207,182.99951,16.64133,221.80273
			c-13.16113,32.40234-13.91406,58.30371-2.2373,76.9834c19.63281,31.41113,71.26172,38.76953,114.04589,41.6709
			c25.37988,1.7207,90.90137,3.83496,151.07227-13.67578c59.85449-17.41895,96.51855-48.54688,108.97266-92.51953
			c8.25098-29.13379,6.96582-60.22314-3.71777-89.90771c-9.86914-27.42139-27.76367-52.99707-50.38672-72.01514
			C307.01828,49.32959,275.7507,37.46191,244.99973,37.46191z" fill="#e94b3c" style=""></path>
	</g>
</g>


<desc>Created with Snap</desc><defs></defs></g><g><g transform="matrix(1.024,0,0,-1.024,0,0)"><path d="M241 62Q239 117 237 179Q236 242 236 324L37 609Q29 620 24 632Q20 644 20 655Q20 674 30 686Q41 699 67 699Q88 699 104 687Q121 676 135 654L284 417L433 654Q447 676 463 687Q480 699 501 699Q527 699 537 686Q548 674 548 655Q548 644 543 632Q539 620 531 609L336 330Q336 262 334 199Q333 137 330 63Q329 39 325 26Q322 13 316 6Q310 -1 302 -3Q295 -4 285 -4Q267 -4 255 8Q243 21 241 62ZM860 507Q917 507 962 489Q1007 472 1038 440Q1070 408 1087 362Q1104 316 1104 259Q1104 196 1084 146Q1065 96 1030 61Q996 26 948 7Q901 -12 845 -12Q784 -12 737 9Q691 30 659 66Q628 102 612 149Q596 196 596 248Q596 305 614 352Q633 400 667 434Q702 469 751 488Q800 507 860 507ZM849 80Q890 80 919 94Q948 109 966 133Q985 157 993 187Q1002 218 1002 251Q1002 285 993 314Q985 344 967 366Q950 388 922 400Q895 413 857 413Q818 413 789 400Q760 387 740 364Q721 342 711 311Q701 280 701 244Q701 171 738 125Q776 80 849 80ZM1281 453Q1283 427 1282 390Q1282 353 1283 312Q1285 272 1290 231Q1295 191 1307 159Q1320 127 1342 107Q1365 87 1401 87Q1437 87 1459 107Q1482 127 1494 159Q1507 191 1512 231Q1517 272 1518 312Q1520 353 1519 390Q1519 427 1521 453Q1525 515 1572 515Q1590 515 1600 505Q1610 495 1614 477Q1619 459 1620 434Q1621 409 1621 378Q1621 314 1614 245Q1608 177 1585 120Q1563 63 1519 26Q1475 -11 1401 -11Q1327 -11 1283 26Q1239 63 1216 120Q1194 177 1187 245Q1181 314 1181 378Q1181 409 1182 434Q1183 459 1187 477Q1192 495 1202 505Q1212 515 1230 515Q1277 515 1281 453ZM1971 426Q1934 426 1904 414Q1875 402 1838 378Q1838 357 1838 316Q1838 276 1837 228Q1836 181 1835 135Q1834 89 1831 58Q1829 38 1826 26Q1824 15 1819 9Q1815 3 1807 1Q1800 0 1788 0Q1776 0 1768 1Q1761 3 1756 8Q1751 14 1748 25Q1745 36 1743 55Q1741 73 1739 103Q1738 133 1737 168Q1736 204 1735 240Q1735 277 1735 308Q1735 359 1736 391Q1738 423 1742 448Q1748 490 1758 501Q1768 512 1785 512Q1810 512 1822 498Q1835 484 1838 452Q1875 484 1917 503Q1960 522 2005 522Q2048 522 2083 502Q2119 482 2142 437Q2156 410 2163 377Q2170 345 2173 309Q2174 293 2175 277Q2176 262 2176 244Q2177 227 2177 205Q2177 183 2177 153Q2177 121 2176 93Q2175 65 2170 44Q2166 24 2155 12Q2144 1 2125 1Q2079 1 2077 45Q2077 48 2077 70Q2077 93 2076 123Q2076 153 2075 184Q2075 215 2074 235Q2073 251 2071 269Q2070 288 2067 307Q2065 326 2061 343Q2057 361 2051 375Q2037 408 2016 417Q1995 426 1971 426ZM2490 -137Q2537 -137 2569 -119Q2602 -100 2622 -66Q2642 -31 2650 17Q2659 66 2659 127Q2650 95 2633 73Q2616 51 2593 37Q2571 24 2543 18Q2515 12 2485 12Q2439 12 2398 25Q2357 38 2326 66Q2296 94 2278 137Q2260 181 2260 242Q2260 301 2277 350Q2295 400 2328 436Q2362 472 2410 492Q2458 512 2520 512Q2553 512 2578 506Q2604 500 2624 490Q2644 480 2659 466Q2675 452 2688 436Q2726 388 2743 322Q2760 257 2760 165Q2760 97 2748 26Q2737 -45 2707 -103Q2677 -160 2624 -197Q2571 -233 2488 -233Q2473 -233 2454 -232Q2436 -230 2416 -227Q2397 -224 2378 -219Q2359 -213 2343 -204Q2323 -193 2311 -183Q2299 -173 2299 -150Q2299 -131 2307 -116Q2316 -100 2337 -100Q2347 -100 2359 -106Q2371 -112 2388 -119Q2406 -125 2430 -131Q2455 -137 2490 -137ZM2495 103Q2534 103 2561 117Q2589 132 2606 156Q2624 180 2632 210Q2641 240 2641 270Q2641 295 2634 320Q2628 346 2613 367Q2598 388 2572 401Q2546 414 2507 414Q2441 414 2400 374Q2360 334 2360 256Q2360 183 2396 143Q2432 103 2495 103ZM2855 53Q2853 75 2852 119Q2851 164 2850 222Q2849 281 2849 350Q2849 419 2849 491Q2849 576 2850 630Q2851 684 2856 715Q2861 746 2872 757Q2883 769 2904 769Q2922 769 2930 757Q2938 746 2942 707Q2944 683 2945 642Q2947 602 2947 554Q2948 506 2948 454Q2949 402 2949 355L2949 274L3171 475Q3182 485 3197 494Q3213 504 3230 504Q3250 504 3260 488Q3270 473 3270 453Q3270 442 3266 432Q3263 423 3252 415L3117 304L3281 66Q3290 54 3290 39Q3290 17 3276 6Q3262 -5 3240 -5Q3224 -5 3212 1Q3200 7 3189 24L3039 241L2948 166Q2947 129 2946 100Q2945 71 2943 54Q2939 19 2930 8Q2921 -3 2898 -3Q2875 -3 2866 8Q2858 19 2855 53ZM3386 62Q3384 99 3382 146Q3381 194 3381 251Q3381 322 3382 372Q3383 423 3387 455Q3392 488 3402 503Q3412 519 3430 519Q3447 519 3460 507Q3473 495 3475 455Q3481 350 3481 252Q3481 202 3479 158Q3477 115 3475 63Q3474 39 3470 26Q3467 13 3461 6Q3455 -1 3447 -3Q3440 -4 3430 -4Q3412 -4 3400 8Q3388 21 3386 62ZM3431 700Q3454 700 3473 682Q3493 664 3493 639Q3493 615 3473 597Q3453 580 3428 580Q3407 580 3388 597Q3370 615 3370 641Q3370 665 3388 682Q3407 700 3431 700ZM4209 47Q4177 91 4148 134Q4120 178 4087 230Q4055 282 4013 345Q3972 409 3914 494Q3914 419 3914 359Q3914 300 3913 249Q3912 198 3911 153Q3910 108 3908 63Q3907 39 3903 26Q3900 13 3894 6Q3888 -1 3880 -3Q3873 -4 3863 -4Q3845 -4 3833 8Q3821 21 3819 62Q3814 172 3813 282Q3813 393 3813 511Q3813 578 3814 616Q3816 654 3821 673Q3827 692 3836 697Q3846 702 3862 702Q3878 702 3904 677Q3930 653 3961 613Q3992 573 4027 521Q4063 469 4098 414Q4133 359 4165 305Q4198 251 4225 207Q4224 254 4224 310Q4224 367 4224 436Q4224 515 4225 566Q4226 618 4230 648Q4235 678 4245 690Q4255 702 4273 702Q4290 702 4303 691Q4316 680 4318 640Q4320 604 4321 576Q4322 548 4323 520Q4324 493 4324 463Q4324 434 4324 397Q4324 352 4324 311Q4324 270 4323 230Q4322 190 4321 149Q4320 108 4318 63Q4317 39 4313 26Q4310 13 4304 6Q4298 -1 4290 -3Q4283 -4 4273 -4Q4256 -4 4244 6Q4232 16 4209 47ZM4855 -4Q4839 -4 4829 1Q4820 7 4815 16Q4810 25 4808 37Q4806 50 4805 64Q4780 33 4740 12Q4701 -9 4640 -9Q4601 -9 4560 2Q4520 14 4487 42Q4454 71 4433 119Q4412 167 4412 240Q4412 297 4426 347Q4440 397 4468 434Q4497 472 4540 494Q4583 516 4641 516Q4692 516 4732 497Q4772 479 4804 437Q4804 449 4805 461Q4806 474 4810 484Q4815 495 4825 501Q4835 508 4852 508Q4867 508 4880 496Q4893 484 4895 444Q4898 391 4899 349Q4901 307 4901 262Q4901 207 4900 161Q4899 115 4895 63Q4893 40 4889 26Q4886 13 4881 6Q4876 0 4869 -2Q4862 -4 4855 -4ZM4801 250Q4801 302 4785 335Q4770 368 4746 386Q4723 405 4696 412Q4669 419 4646 419Q4610 419 4584 406Q4559 393 4543 370Q4527 348 4519 317Q4512 287 4512 251Q4512 163 4550 121Q4589 79 4655 79Q4694 79 4721 92Q4749 106 4766 129Q4784 152 4792 183Q4801 215 4801 250ZM5692 30Q5686 47 5684 68Q5683 89 5683 120Q5683 142 5683 154Q5684 167 5684 176Q5684 186 5684 195Q5685 205 5685 222Q5685 257 5683 292Q5682 328 5673 356Q5664 385 5645 403Q5626 421 5590 421Q5529 421 5495 363Q5461 305 5454 178Q5452 138 5452 105Q5452 72 5448 48Q5444 25 5433 12Q5423 -1 5399 -1Q5377 -1 5367 10Q5357 22 5352 45Q5348 68 5347 101Q5347 134 5344 178Q5341 226 5334 270Q5328 314 5313 347Q5299 381 5274 401Q5250 421 5212 421Q5176 421 5156 403Q5137 386 5128 357Q5119 329 5117 293Q5116 258 5116 222Q5116 204 5116 195Q5117 187 5117 180Q5117 173 5117 162Q5118 151 5118 128Q5118 95 5116 71Q5115 47 5109 30Q5102 10 5090 5Q5078 1 5068 1Q5037 1 5028 23Q5019 45 5018 87Q5018 110 5017 138Q5017 167 5017 208Q5017 228 5017 243Q5017 258 5017 272Q5018 286 5018 300Q5019 315 5020 334Q5023 395 5042 431Q5061 468 5087 487Q5113 506 5143 511Q5173 517 5198 517Q5252 517 5289 501Q5326 485 5349 459Q5373 433 5384 400Q5396 367 5400 333Q5404 366 5416 398Q5429 431 5453 456Q5478 482 5517 498Q5556 514 5613 514Q5640 514 5668 508Q5697 503 5721 484Q5745 465 5761 429Q5778 394 5781 334Q5782 315 5782 300Q5783 286 5783 272Q5784 258 5784 243Q5784 228 5784 208Q5784 167 5783 138Q5783 110 5783 87Q5783 68 5781 52Q5780 36 5775 25Q5770 14 5760 7Q5751 1 5733 1Q5716 1 5707 7Q5698 14 5692 30Z" fill="#2d2926" style=""></path></g></g><g transform="matrix(0.75,0,0,0.75,1661.4402,1129.4721)"><g transform="matrix(1.024,0,0,-1.024,0,0)"><path d="M29 -226Q18 -229 10 -229Q2 -229 -5 -223Q-11 -217 -11 -207Q-11 -189 12 -183Q64 -167 84 -124Q104 -80 104 -6L104 327L43 327Q33 327 26 333Q20 340 20 350Q20 360 26 367Q33 374 43 374L104 374L104 600Q104 687 140 723Q177 760 253 760Q329 760 383 727Q395 720 395 709L395 623Q395 613 387 606Q379 600 368 600Q357 600 349 606Q341 613 341 623L341 698Q306 714 254 714Q202 714 179 687Q157 661 157 599L157 374L331 374Q341 374 347 367Q354 360 354 350Q354 340 347 333Q341 327 331 327L157 327L157 -6Q157 -95 130 -148Q103 -201 29 -226ZM797 47L844 47Q854 47 860 40Q867 34 867 24Q867 14 860 7Q854 0 844 0L790 0Q728 0 728 68Q668 -10 577 -10Q523 -10 488 17Q454 45 454 98L454 308Q454 327 427 327L388 327Q378 327 371 334Q365 341 365 351Q365 361 371 367Q378 374 388 374L427 374Q508 374 508 309L508 98Q508 68 526 52Q545 36 578 36Q670 36 724 132L724 361Q724 371 732 377Q740 384 751 384Q762 384 770 377Q778 371 778 361L778 66Q778 47 797 47ZM1026 47L1065 47Q1075 47 1081 40Q1088 33 1088 23Q1088 13 1081 6Q1075 0 1065 0L1026 0Q945 0 945 65L945 703L879 703Q869 703 862 709Q856 716 856 726Q856 736 862 743Q869 750 879 750L972 750Q983 750 991 743Q999 736 999 726L999 66Q999 47 1026 47ZM1252 47L1291 47Q1301 47 1307 40Q1314 33 1314 23Q1314 13 1307 6Q1301 0 1291 0L1252 0Q1171 0 1171 65L1171 703L1105 703Q1095 703 1088 709Q1082 716 1082 726Q1082 736 1088 743Q1095 750 1105 750L1198 750Q1209 750 1217 743Q1225 736 1225 726L1225 66Q1225 47 1252 47ZM1371 39L1371 120Q1371 130 1379 136Q1387 143 1398 143Q1409 143 1417 136Q1425 130 1425 120L1425 52Q1473 36 1525 36Q1639 36 1639 100Q1639 148 1532 171Q1527 172 1510 176Q1493 180 1482 182Q1471 185 1445 194Q1420 204 1409 214Q1379 241 1379 280Q1379 320 1405 344Q1432 369 1464 376Q1496 384 1534 384Q1604 384 1663 357Q1681 349 1681 335L1681 258Q1681 248 1673 241Q1665 235 1654 235Q1643 235 1635 241Q1627 248 1627 258L1627 322Q1587 338 1534 338Q1432 338 1432 280Q1432 259 1445 251Q1459 243 1465 239Q1472 235 1489 231Q1513 225 1538 220Q1563 215 1579 211Q1595 207 1619 197Q1644 188 1658 176Q1693 148 1693 103Q1693 58 1663 31Q1634 5 1599 -3Q1565 -10 1525 -10Q1446 -10 1389 16Q1371 24 1371 39ZM2068 64Q2076 69 2086 67Q2097 65 2101 58Q2105 52 2105 47Q2105 32 2094 25Q2034 -10 1965 -10Q1896 -10 1866 18Q1836 47 1836 113L1836 327L1780 327Q1770 327 1763 333Q1757 340 1757 350Q1757 360 1763 367Q1770 374 1780 374L1836 374L1836 517Q1836 527 1844 533Q1852 540 1863 540Q1874 540 1882 533Q1890 527 1890 517L1890 374L2058 374Q2068 374 2074 367Q2081 360 2081 350Q2081 340 2074 333Q2068 327 2058 327L1890 327L1890 113Q1890 71 1907 53Q1925 36 1972 36Q2020 36 2068 64ZM2430 136L2430 155Q2364 173 2317 173Q2271 173 2241 155Q2212 137 2212 104Q2212 72 2231 54Q2250 36 2283 36Q2375 36 2430 136ZM2510 47L2549 47Q2559 47 2565 40Q2572 33 2572 23Q2572 13 2565 6Q2559 0 2549 0L2505 0Q2469 0 2449 16Q2430 32 2430 61Q2430 66 2431 72Q2378 -10 2277 -10Q2221 -10 2189 20Q2158 50 2158 103Q2158 157 2200 187Q2243 218 2306 218Q2370 218 2430 197L2430 266Q2430 314 2395 328Q2368 338 2320 338Q2273 338 2233 322L2233 259Q2233 249 2225 242Q2217 236 2206 236Q2195 236 2187 242Q2179 249 2179 259L2179 335Q2179 348 2192 355Q2241 384 2322 384Q2403 384 2443 357Q2483 331 2483 266L2483 66Q2483 47 2510 47ZM2912 96Q2920 108 2928 108Q2937 108 2946 104Q2960 98 2960 87Q2960 77 2957 72Q2906 -10 2795 -10Q2710 -10 2659 47Q2608 105 2608 189Q2608 273 2661 328Q2715 384 2794 384Q2874 384 2933 347Q2945 339 2945 328L2945 244Q2945 234 2937 227Q2929 221 2918 221Q2907 221 2899 227Q2891 234 2891 244L2891 315Q2851 338 2795 338Q2739 338 2700 296Q2661 254 2661 187Q2661 121 2698 78Q2736 36 2795 36Q2873 36 2912 96ZM3117 242L3117 212Q3161 205 3207 205Q3253 205 3292 223Q3332 242 3332 283Q3332 340 3263 340Q3170 340 3117 242ZM3400 36Q3410 36 3416 29Q3423 23 3423 13Q3423 3 3416 -4Q3410 -10 3400 -10Q3311 -10 3237 38Q3164 87 3117 160L3117 13Q3117 3 3109 -4Q3101 -10 3090 -10Q3079 -10 3071 -4Q3063 3 3063 13L3063 703L2997 703Q2987 703 2980 709Q2974 716 2974 726Q2974 736 2980 743Q2987 750 2997 750L3090 750Q3100 750 3108 743Q3117 736 3117 726L3117 307Q3175 386 3263 386Q3320 386 3353 359Q3386 333 3386 286Q3386 239 3356 210Q3307 163 3218 163Q3185 163 3159 170Q3202 113 3267 74Q3333 36 3400 36Z" fill="#2d2926" style=""></path></g></g></g></svg>